Coordinates
version=1
nRows=37
nColumns=38
inDegrees=no

Units are S.I. units (second, meters, Newtons, ...)
If the header above contains a line with 'inDegrees', this indicates whether rotational values are in degrees (yes) or radians (no).

endheader
time	pelvis_tilt	pelvis_list	pelvis_rotation	pelvis_tx	pelvis_ty	pelvis_tz	hip_flexion_r	hip_adduction_r	hip_rotation_r	knee_angle_r	ankle_angle_r	subtalar_angle_r	mtp_angle_r	hip_flexion_l	hip_adduction_l	hip_rotation_l	knee_angle_l	ankle_angle_l	subtalar_angle_l	mtp_angle_l	lumbar_extension	lumbar_bending	lumbar_rotation	arm_flex_r	arm_add_r	arm_rot_r	elbow_flex_r	pro_sup_r	wrist_flex_r	wrist_dev_r	arm_flex_l	arm_add_l	arm_rot_l	elbow_flex_l	pro_sup_l	wrist_flex_l	wrist_dev_l
0	0.209289	1.47962	-1.68318	0.666911	1.90121	0.933162	-0.0864457	-0.0594713	-0.229231	0.177633	0.124604	0	0	-0.139676	0.0252725	-0.220543	0	0.0121034	0	0	-0.182952	0.00181958	-0.0492851	0.0675548	-0.262627	0.596402	0.68242	1.55061	0	0	0.0483521	-0.421616	0.329251	0.732109	1.44247	0	0
0.01	0.345636	1.46822	-1.82106	0.667654	1.90154	0.93503	-0.0979255	-0.0777952	-0.230378	0.174767	0.12458	0	0	-0.156604	0.0388441	-0.194392	0	-0.00260845	0	0	-0.194632	-0.0133987	-0.0523431	0.0644707	-0.255412	0.498615	0.706304	1.44714	0	0	0.0502181	-0.41884	0.331026	0.725172	1.44135	0	0
0.02	0.33683	1.46847	-1.81647	0.667478	1.90061	0.934896	-0.0998472	-0.076728	-0.226585	0.17092	0.123326	0	0	-0.158794	0.0385822	-0.19642	0	-0.002794	0	0	-0.193046	-0.0118268	-0.0518095	0.0704133	-0.263334	0.591227	0.679929	1.56263	0	0	0.0477102	-0.416178	0.332794	0.720256	1.43958	0	0
0.03	0.340704	1.4703	-1.82399	0.667205	1.90016	0.934742	-0.0995078	-0.0762562	-0.221562	0.167058	0.121956	0	0	-0.158364	0.0389834	-0.200126	0	-0.00256345	0	0	-0.190832	-0.0120138	-0.051574	0.0706653	-0.26284	0.581664	0.681823	1.54961	0	0	0.0456823	-0.41398	0.334126	0.716044	1.43744	0	0
0.04	0.322937	1.47078	-1.81132	0.665919	1.89967	0.934856	-0.102617	-0.0721204	-0.21409	0.160018	0.118986	0	0	-0.158812	0.0376097	-0.223807	0	-0.000694449	0	0	-0.190902	-0.012207	-0.0504647	0.0717879	-0.259856	0.574281	0.679071	1.54332	0	0	0.0428688	-0.414655	0.335653	0.713894	1.43386	0	0
0.05	0.354145	1.47321	-1.84045	0.666958	1.89953	0.934491	-0.100809	-0.0757102	-0.214303	0.157907	0.119005	0	0	-0.157009	0.0401507	-0.202845	0	-0.00303474	0	0	-0.188167	-0.0125368	-0.0559152	0.0729807	-0.262462	0.571232	0.677534	1.54189	0	0	0.0404849	-0.410953	0.337655	0.710075	1.42866	0	0
0.06	0.426923	1.4619	-1.92119	0.665664	1.89859	0.936283	-0.113643	-0.0861689	-0.208831	0.150374	0.116184	0	0	-0.167117	0.0518021	-0.209169	0	-0.00453543	0	0	-0.197475	-0.026587	-0.0541663	0.0756487	-0.258463	0.575675	0.666781	1.54364	0	0	0.0377631	-0.41292	0.339857	0.706767	1.42201	0	0
0.07	0.365955	1.47854	-1.85263	0.666942	1.89896	0.934043	-0.0999556	-0.0740718	-0.212635	0.148765	0.11596	0	0	-0.152051	0.0401741	-0.204738	0	-0.00208409	0	0	-0.183265	-0.0115746	-0.0627383	0.0752655	-0.265719	0.58338	0.67022	1.53751	0	0	0.0341743	-0.408282	0.34368	0.703745	1.41315	0	0
0.08	0.253428	1.49521	-1.73502	0.667511	1.89933	0.931978	-0.0884809	-0.0585332	-0.213059	0.142463	0.113222	0	0	-0.130566	0.0288353	-0.210123	0	0.0109334	0	0	-0.168925	0.00393876	-0.0699996	0.0746755	-0.270778	0.588533	0.673212	1.52353	0	0	0.0302568	-0.406387	0.34948	0.702943	1.40198	0	0
0.09	0.207998	1.4944	-1.69353	0.666324	1.89814	0.932034	-0.0947805	-0.0523665	-0.207663	0.132351	0.108364	0	0	-0.131717	0.0259626	-0.233256	0	0.0135629	0	0	-0.170196	0.00562231	-0.0695024	0.0746329	-0.269339	0.587376	0.669492	1.49919	0	0	0.0262309	-0.40803	0.356257	0.701994	1.38817	0	0
0.1	0.354155	1.4821	-1.83815	0.666015	1.89942	0.934074	-0.107862	-0.0667895	-0.207473	0.124876	0.10609	0	0	-0.144848	0.0381832	-0.234674	0	0.00665041	0	0	-0.187683	-0.0106784	-0.0734902	0.0794814	-0.265224	0.582926	0.664534	1.45684	0	0	0.0340207	-0.411589	0.369289	0.698965	1.36546	0	0
0.11	0.354316	1.48135	-1.84305	0.665659	1.89826	0.934186	-0.111799	-0.0670682	-0.205728	0.120449	0.103073	0	0	-0.148775	0.0389148	-0.22855	0	-0.000314136	0	0	-0.18549	-0.0109022	-0.070367	0.0722488	-0.263161	0.556344	0.664061	1.4054	0	0	0.0281972	-0.409353	0.381991	0.694425	1.3416	0	0
0.12	0.290747	1.49156	-1.77653	0.666057	1.89788	0.932846	-0.105174	-0.0577268	-0.205491	0.115438	0.100564	0	0	-0.135741	0.0324043	-0.227042	0	0.00296939	0	0	-0.177179	-0.00204708	-0.076057	0.0688788	-0.258498	0.442133	0.684424	1.32204	0	0	0.0238747	-0.408509	0.392164	0.694445	1.31163	0	0
0.13	0.361479	1.48396	-1.85074	0.665406	1.89808	0.934109	-0.113552	-0.0655416	-0.20415	0.111163	0.0983576	0	0	-0.145571	0.0388309	-0.228861	0	-0.000563292	0	0	-0.185292	-0.0107284	-0.0728781	0.069334	-0.264901	0.552917	0.653571	1.43239	0	0	0.0272201	-0.410203	0.414248	0.690441	1.26256	0	0
0.14	0.265314	1.50129	-1.74868	0.666777	1.89811	0.931815	-0.0987686	-0.0533636	-0.205636	0.108818	0.0970766	0	0	-0.123647	0.0288826	-0.212876	0	0.0106045	0	0	-0.170527	0.00407769	-0.0802315	0.0647679	-0.260428	0.417689	0.678376	1.33595	0	0	0.0230436	-0.407055	0.425525	0.691746	1.20822	0	0
0.15	0.365013	1.485	-1.85672	0.66502	1.89785	0.93419	-0.116341	-0.0644291	-0.198696	0.102605	0.0931697	0	0	-0.144125	0.0392359	-0.230628	0	-0.00138794	0	0	-0.187646	-0.0102714	-0.0760177	0.0687397	-0.265137	0.537052	0.643206	1.48921	0	0	0.0203556	-0.405028	0.419706	0.691101	1.07659	0	0
0.16	0.383396	1.48802	-1.87605	0.664802	1.89714	0.933969	-0.114487	-0.064235	-0.196642	0.0989644	0.0912841	0	0	-0.140421	0.039749	-0.229695	0	-0.002274	0	0	-0.185795	-0.0103216	-0.075048	0.0613554	-0.255436	0.403044	0.663504	1.39554	0	0	0.024977	-0.380142	0.216066	0.696561	0.849511	0	0
0.17	0.386784	1.48721	-1.8777	0.665489	1.89743	0.933886	-0.116543	-0.0655844	-0.19803	0.0972906	0.0906756	0	0	-0.141997	0.0400604	-0.209342	0	-0.00368565	0	0	-0.186812	-0.0100315	-0.0760681	0.0623538	-0.269774	0.516114	0.639846	1.56414	0	0	0.0237	-0.414449	0.495534	0.69535	0.977731	0	0
0.18	0.192039	1.49179	-1.67991	0.666175	1.89728	0.933239	-0.117952	-0.0468363	-0.199325	0.092134	0.085077	0	0	-0.140491	0.0218645	-0.20585	0	0.00311601	0	0	-0.18738	0.0109766	-0.0811607	0.0628143	-0.27919	0.528349	0.640245	1.57038	0	0	0.0166161	-0.395173	0.450579	0.690065	0.778449	0	0
0.19	0.286914	1.50811	-1.77672	0.66569	1.89698	0.931548	-0.0983757	-0.0511753	-0.196035	0.0943616	0.0885275	0	0	-0.116171	0.0292241	-0.214674	0	0.00774598	0	0	-0.170841	0.00850121	-0.0833221	0.0603327	-0.279493	0.531666	0.633215	1.5708	0	0	0.0379609	-0.338865	0.0225173	0.616458	0.364734	0	0
0.2	0.507261	1.50505	-2.00465	0.664735	1.89625	0.932452	-0.0888527	-0.0692779	-0.207108	0.111224	0.102846	0	0	-0.119187	0.0435921	-0.234344	0	-0.00248224	0	0	-0.171027	-0.0108935	-0.0711472	0.0577205	-0.235214	0.150294	0.62841	0.713602	0	0	0.0241444	-0.348228	0.109508	0.660502	0.721035	0	0
0.21	-0.140149	1.51904	-1.43738	0.668007	1.88615	0.92942	-0.0893312	-0.0448066	-0.114747	0.0911953	0.0857495	0	0	-0.136778	0.0236008	-0.327977	0	0.020125	0	0	-0.13557	0.0510358	0.0087309	0.0151867	-0.346641	0.556737	0.674316	1.52397	0	0	0.0147646	-0.276008	-0.0246236	0.57076	0.391128	0	0
0.22	-0.164759	1.52184	-1.4147	0.668842	1.8849	0.92901	-0.0889242	-0.0455175	-0.114416	0.0883217	0.0854027	0	0	-0.13532	0.0246392	-0.332191	0	0.0209461	0	0	-0.130878	0.0543291	0.0118251	0.00663981	-0.352085	0.548226	0.671641	1.55029	0	0	0.00934853	-0.270189	-0.0231534	0.570381	0.404785	0	0
0.23	-0.171208	1.52164	-1.40492	0.6688	1.88502	0.929045	-0.0907832	-0.0442636	-0.116705	0.0856479	0.0839397	0	0	-0.134504	0.02352	-0.327537	0	0.0208573	0	0	-0.13318	0.0546363	0.0095412	0.00432111	-0.352663	0.544732	0.666628	1.54773	0	0	0.00886518	-0.269189	-0.0238295	0.568908	0.402121	0	0
0.24	-0.185712	1.52266	-1.38834	0.668572	1.88518	0.928972	-0.0908683	-0.042744	-0.116712	0.0831868	0.0821284	0	0	-0.132262	0.0222793	-0.325794	0	0.0216012	0	0	-0.134087	0.0549171	0.00804442	0.00379761	-0.353028	0.545827	0.661879	1.48525	0	0	0.00679055	-0.269437	-0.0199859	0.570571	0.394561	0	0
0.25	-0.580173	1.52671	-0.992998	0.667866	1.88452	0.926953	-0.0820615	-0.0238475	-0.11359	0.0791164	0.0795582	0	0	-0.11381	0.00767655	-0.348706	0	0.0374167	0	0	-0.122963	0.0708339	0.00780285	-0.000381721	-0.35525	0.54437	0.657241	1.47862	0	0	0.00194324	-0.268636	-0.0196791	0.573159	0.395565	0	0
0.26	-0.252599	1.52267	-1.31731	0.66769	1.88584	0.928953	-0.0928882	-0.0361513	-0.115324	0.0764888	0.0792282	0	0	-0.12676	0.0177841	-0.348525	0	0.0326318	0	0	-0.140812	0.0562606	0.00634652	0.0028667	-0.351558	0.545507	0.643222	1.51643	0	0	0.00908759	-0.270575	-0.0197793	0.573092	0.392062	0	0
0.27	-0.0485715	1.50994	-1.53201	0.666613	1.8833	0.930989	-0.111709	-0.0462593	-0.112331	0.0724227	0.0764652	0	0	-0.14629	0.0278851	-0.342439	0	0.024764	0	0	-0.152377	0.0449193	0.0150626	-0.00171721	-0.341724	0.455528	0.642473	1.42184	0	0	-0.000190782	-0.269103	-0.0250913	0.571862	0.390421	0	0
0.28	-0.182956	1.52171	-1.38676	0.668166	1.88507	0.92908	-0.0957987	-0.0405102	-0.118145	0.0768242	0.0788189	0	0	-0.132003	0.0211842	-0.320973	0	0.0222509	0	0	-0.142231	0.0547688	0.0100526	-0.00605787	-0.354843	0.543139	0.625706	1.47144	0	0	0.000808717	-0.264379	-0.0223537	0.571218	0.38915	0	0
0.29	-0.18815	1.52476	-1.38169	0.667958	1.88515	0.928798	-0.0909045	-0.0408144	-0.119435	0.0798764	0.0806763	0	0	-0.128264	0.021358	-0.319927	0	0.02222	0	0	-0.140456	0.0543339	0.00952236	-0.00375265	-0.358114	0.561438	0.615235	1.51659	0	0	-0.00466535	-0.26415	-0.018777	0.577062	0.405441	0	0
0.3	-0.566172	1.53217	-0.997074	0.668204	1.88525	0.926767	-0.0790927	-0.0263742	-0.12302	0.0782287	0.0804508	0	0	-0.10827	0.00940567	-0.320284	0	0.0345455	0	0	-0.127187	0.068004	0.00480869	-0.00882516	-0.36192	0.564283	0.61341	1.50709	0	0	-0.00775949	-0.261878	-0.0253128	0.575419	0.386568	0	0
0.31	-0.196282	1.52647	-1.36772	0.667872	1.88456	0.928639	-0.0919258	-0.0393113	-0.125619	0.0771479	0.0804113	0	0	-0.126041	0.0199336	-0.313913	0	0.0231523	0	0	-0.140441	0.054071	0.00639958	-0.0089262	-0.357779	0.563493	0.598859	1.51673	0	0	-0.0094457	-0.262599	-0.0261088	0.575438	0.385636	0	0
0.32	-0.190133	1.52573	-1.3721	0.667816	1.88449	0.928719	-0.093435	-0.0390521	-0.126936	0.0764979	0.0801633	0	0	-0.126533	0.0196236	-0.311574	0	0.0232052	0	0	-0.143083	0.0537435	0.00589022	-0.0103052	-0.356835	0.558571	0.591014	1.52089	0	0	-0.0119389	-0.262379	-0.025674	0.577539	0.384362	0	0
0.33	-0.185563	1.52489	-1.37503	0.667774	1.88442	0.928805	-0.0954232	-0.0387215	-0.127161	0.0750322	0.0793038	0	0	-0.127081	0.0192754	-0.310406	0	0.0238388	0	0	-0.145597	0.0532711	0.005858	-0.0111606	-0.356721	0.55977	0.586031	1.46064	0	0	-0.0167502	-0.264027	-0.0107734	0.587833	0.424569	0	0
0.34	-0.0401527	1.51326	-1.52856	0.666077	1.88276	0.930734	-0.111757	-0.0437902	-0.124097	0.0707801	0.0773253	0	0	-0.140643	0.0254077	-0.329099	0	0.0269725	0	0	-0.159074	0.043327	0.0130625	-0.0131607	-0.348438	0.542967	0.571656	1.51225	0	0	-0.0170008	-0.265661	-0.024841	0.580747	0.381275	0	0
0.35	0.00259954	1.51727	-1.56454	0.66696	1.88343	0.9305	-0.107553	-0.0469845	-0.128799	0.0721184	0.0787505	0	0	-0.136129	0.0271771	-0.308981	0	0.0251278	0	0	-0.15732	0.0417615	0.0102114	-0.0172139	-0.346359	0.539655	0.56206	1.41733	0	0	-0.0194931	-0.266113	-0.00476165	0.590298	0.441509	0	0
0.36	-0.208188	1.52896	-1.34016	0.668203	1.88491	0.92856	-0.0936192	-0.036537	-0.132807	0.0718424	0.0798736	0	0	-0.118018	0.0173152	-0.311131	0	0.0332468	0	0	-0.149734	0.0521006	-0.00173058	-0.0129183	-0.340472	0.427626	0.571546	1.3425	0	0	-0.0185521	-0.266124	-0.00397031	0.596426	0.452662	0	0
